<?xml version="1.0" encoding="utf-8"?>
<svg width="658.2803px" height="626.8008px" viewBox="0 0 658.2803 626.8008" version="1.1" xmlns:xlink="http://www.w3.org/1999/xlink" xmlns="http://www.w3.org/2000/svg">
  <defs>
    <path d="M658.28 0L658.28 0L658.28 626.801L0 626.801L0 0L658.28 0Z" id="path_1" />
    <path d="M658.28 0L658.28 0L658.28 626.801L0 626.801L0 0L658.28 0L658.28 0Z" id="path_2" />
    <clipPath id="clip_1">
      <use xlink:href="#path_1" clip-rule="evenodd" fill-rule="evenodd" />
    </clipPath>
    <clipPath id="clip_2">
      <use xlink:href="#path_2" clip-rule="evenodd" fill-rule="evenodd" />
    </clipPath>
  </defs>
  <g id="logo">
    <path d="M658.28 0L658.28 0L658.28 626.801L0 626.801L0 0L658.28 0Z" id="logo" fill="none" stroke="none" />
    <g id="logo" clip-path="url(#clip_1)">
      <path d="M658.28 0L658.28 0L658.28 626.801L0 626.801L0 0L658.28 0L658.28 0Z" id="logo#1" fill="none" stroke="none" />
      <g id="Mask-Group">
        <path d="M658.28 0L658.28 0L658.28 626.801L0 626.801L0 0L658.28 0L658.28 0Z" id="path_1" fill="none" fill-rule="evenodd" stroke="none" />
        <g clip-path="url(#clip_2)">
          <path d="M184.124 0.116302C188.418 0.118805 192.711 0.109711 197.004 0.102264C205.389 0.0895996 213.774 0.0877075 222.158 0.0900574C228.982 0.0918579 235.806 0.0900879 242.63 0.0858459C244.093 0.0849609 244.093 0.0849609 245.586 0.0840454C247.569 0.0828247 249.552 0.081604 251.534 0.0803833C270.079 0.0695496 288.624 0.0716553 307.169 0.0777893C324.084 0.0829468 340.999 0.0716858 357.914 0.0526733C375.34 0.0332336 392.765 0.0250549 410.191 0.0288086C419.951 0.0307007 429.711 0.0283203 439.471 0.0140991C447.781 0.00210571 456.09 0.000854492 464.399 0.0128784C468.627 0.0187073 472.854 0.0200195 477.082 0.00787354C499.182 -0.051239 521.499 0.0675964 542.955 6.07993C543.888 6.33337 544.821 6.58682 545.783 6.84799C568.971 13.4124 589.223 24.9395 606.888 41.3495C609.136 43.4391 609.136 43.4391 611.666 45.3495C616.18 49.0732 619.579 53.7813 623.142 58.3924C623.546 58.9109 623.95 59.4295 624.367 59.9637C657.343 102.718 658.323 156.247 658.272 207.962C658.273 210.302 658.275 212.641 658.277 214.981C658.281 221.259 658.28 227.537 658.277 233.815C658.274 239.778 658.276 245.74 658.277 251.703C658.28 264.254 658.277 276.804 658.272 289.354C658.267 300.019 658.268 310.684 658.273 321.349C658.278 333.837 658.28 346.325 658.277 358.813C658.275 365.385 658.275 371.957 658.279 378.528C658.289 402.707 658.267 426.878 657.677 451.051C657.656 451.901 657.635 452.751 657.614 453.627C657.036 476.589 655.388 498.156 649.142 520.392C648.948 521.12 648.754 521.847 648.553 522.596C640.921 550.861 621.359 576.917 598.142 594.393C597.625 594.79 597.107 595.188 596.574 595.598C579.635 608.566 561.062 617.248 540.33 622.142C539.088 622.441 539.088 622.441 537.821 622.745C517.873 627.158 497.52 626.69 477.218 626.669C472.77 626.666 468.323 626.675 463.876 626.683C455.188 626.695 446.5 626.697 437.812 626.695C430.743 626.693 423.675 626.695 416.607 626.699C415.597 626.7 414.587 626.7 413.546 626.701C411.494 626.702 409.442 626.703 407.389 626.705C388.188 626.715 368.987 626.713 349.786 626.707C332.261 626.702 314.736 626.713 297.211 626.732C279.168 626.752 261.124 626.76 243.08 626.756C232.97 626.754 222.859 626.757 212.749 626.771C204.143 626.783 195.537 626.784 186.931 626.772C182.549 626.766 178.168 626.765 173.787 626.777C131.727 626.885 131.727 626.885 111.455 620.705C110.599 620.451 109.743 620.197 108.86 619.935C90.2949 614.207 72.8282 605.175 58.1422 592.393C57.3353 591.695 56.5283 590.998 55.6969 590.279C53.1398 588.023 50.636 585.719 48.1422 583.392C47.2669 582.594 46.3917 581.797 45.4899 580.974C21.4895 558.214 8.03076 525.693 3.14221 493.392C2.97957 492.318 2.81693 491.244 2.64935 490.137C0.580734 474.963 0.68895 459.662 0.548584 444.378C0.524612 441.857 0.497345 439.337 0.469147 436.817C-0.0613098 389.036 -0.009552 341.251 0.0136414 293.467C0.0180054 283.411 0.0148621 273.354 0.0100098 263.298C0.00544739 253.41 0.00485229 243.522 0.00744629 233.633C0.00898743 227.808 0.0092926 221.983 0.00592041 216.157C-0.0144958 175.157 -0.0144958 175.157 0.572388 157.541C0.609009 156.436 0.645645 155.33 0.68338 154.192C1.08257 144.136 2.24561 134.273 4.14221 124.392C4.30705 123.532 4.47189 122.672 4.64172 121.786C9.76762 96.0716 20.2235 73.4002 37.1422 53.3924C37.8667 52.5262 38.5911 51.6599 39.3375 50.7674C43.5827 45.8396 48.1336 41.532 53.1422 37.3924C53.8331 36.7904 54.5241 36.1884 55.236 35.5682C92.2365 4.33316 137.691 0.0656128 184.124 0.116302L184.124 0.116302L184.124 0.116302L184.124 0.116302Z" id="Shape" fill="#155DFC" stroke="none" />
        </g>
      </g>
      <g id="Mask-Group">
        <path d="M658.28 0L658.28 0L658.28 626.801L0 626.801L0 0L658.28 0L658.28 0Z" id="path_1" fill="none" fill-rule="evenodd" stroke="none" />
        <g clip-path="url(#clip_2)">
          <path d="M274.335 107.272C274.335 138.326 274.335 169.382 274.335 201.378C299.226 201.378 324.118 201.378 349.764 201.378C349.764 232.992 349.764 264.607 349.764 297.18C370.181 297.18 390.598 297.18 411.634 297.18C411.634 265.565 411.634 233.95 411.634 201.378C415.599 204.777 419.374 208.152 423.042 211.84C423.559 212.357 424.076 212.874 424.609 213.406C426.326 215.122 428.04 216.842 429.755 218.561C430.991 219.798 432.228 221.035 433.464 222.271C436.81 225.618 440.154 228.968 443.496 232.317C446.995 235.822 450.495 239.325 453.995 242.827C460.619 249.455 467.24 256.085 473.86 262.715C481.398 270.267 488.94 277.815 496.482 285.363C511.991 300.886 527.496 316.412 543 331.94C541.602 335.532 538.934 337.939 536.255 340.599C535.732 341.125 535.209 341.65 534.67 342.192C532.914 343.955 531.153 345.711 529.392 347.468C528.133 348.729 526.875 349.991 525.616 351.253C522.197 354.681 518.773 358.104 515.347 361.525C511.768 365.102 508.192 368.683 504.616 372.262C498.612 378.272 492.603 384.278 486.593 390.282C479.635 397.233 472.683 404.19 465.735 411.151C459.776 417.118 453.814 423.084 447.849 429.046C444.284 432.61 440.719 436.176 437.157 439.745C433.811 443.097 430.46 446.445 427.106 449.79C425.873 451.022 424.641 452.255 423.41 453.49C421.737 455.168 420.059 456.841 418.38 458.513C417.887 459.009 417.396 459.504 416.889 460.015C413.522 463.349 413.522 463.349 411.634 463.349C411.634 423.062 411.634 382.774 411.634 341.265C391.217 341.265 370.8 341.265 349.764 341.265C349.764 400.578 349.764 459.89 349.764 521C345.907 519.457 342.753 517.609 339.33 515.331C332.318 510.725 325.222 506.266 318.101 501.833C317.285 501.326 316.471 500.818 315.632 500.295C314.92 499.853 314.208 499.411 313.475 498.954C312.585 498.396 311.695 497.837 310.778 497.261C310.031 496.898 309.285 496.532 308.515 496.157C301.987 492.678 301.987 492.678 300.595 489.139C300.277 486.427 300.257 483.848 300.334 481.118C300.326 480.093 300.319 479.066 300.31 478.009C300.298 475.168 300.326 472.333 300.373 469.494C300.414 466.429 300.4 463.365 300.393 460.301C300.388 454.993 300.417 449.688 300.47 444.382C300.546 436.71 300.57 429.039 300.582 421.367C300.602 408.919 300.664 396.472 300.752 384.024C300.838 371.934 300.904 359.844 300.943 347.755C300.946 347.008 300.949 346.263 300.951 345.495C300.963 341.755 300.975 338.015 300.987 334.275C301.083 303.258 301.254 272.241 301.455 241.224C278.801 241.224 297.675 241.224 274.335 241.224C271.574 273.142 276.515 350.875 274.335 363.308C270.406 360.023 266.676 356.617 263.068 352.983C262.567 352.481 262.065 351.979 261.547 351.461C259.881 349.794 258.218 348.124 256.555 346.454C255.355 345.251 254.154 344.049 252.953 342.847C250.375 340.266 247.799 337.683 245.223 335.099C241.147 331.01 237.067 326.924 232.987 322.838C223.59 313.428 214.196 304.012 204.803 294.597C196.194 285.968 187.583 277.339 178.969 268.715C174.917 264.657 170.867 260.597 166.818 256.536C164.295 254.005 161.771 251.477 159.245 248.949C158.079 247.78 156.913 246.611 155.748 245.441C148.13 237.748 148.13 237.748 140.081 230.515C137.549 228.341 135.225 225.952 132.877 223.583C132.36 223.064 131.843 222.546 131.31 222.012C129.686 220.382 128.064 218.748 126.442 217.115C125.329 215.999 124.217 214.882 123.104 213.766C120.401 211.052 117.7 208.335 115 205.617C116.286 201.963 118.631 200.793 121.886 198.884C122.407 198.576 122.927 198.267 123.463 197.949C125.158 196.947 126.859 195.957 128.56 194.967C129.736 194.273 130.911 193.579 132.085 192.884C134.397 191.516 136.711 190.152 139.027 188.79C142.695 186.631 146.335 184.426 149.96 182.196C150.826 181.665 150.826 181.665 151.71 181.124C155.264 178.943 158.813 176.754 162.362 174.566C164.196 173.436 166.03 172.306 167.864 171.175C168.796 170.601 169.726 170.028 170.686 169.436C178.031 164.914 185.4 160.431 192.776 155.96C199.921 151.628 207.049 147.267 214.16 142.879C224.271 136.642 234.421 130.47 244.58 124.311C250.495 120.724 256.4 117.125 262.306 113.526C263.05 113.073 263.793 112.62 264.558 112.153C265.202 111.761 265.845 111.369 266.508 110.965C267.133 110.585 267.758 110.206 268.402 109.815C269.145 109.347 269.889 108.879 270.655 108.397C272.639 107.272 274.335 106 274.335 106L274.335 107.272L274.335 107.272L274.335 107.272Z" id="Shape#1" fill="#FEFEFE" stroke="none" />
        </g>
      </g>
    </g>
  </g>
</svg>